Coordinates
version=1
nRows=9
nColumns=24
inDegrees=yes

Units are S.I. units (second, meters, Newtons, ...)
Angles are in degrees.

endheader
time	pelvis_tilt	pelvis_list	pelvis_rotation	pelvis_tx	pelvis_ty	pelvis_tz	hip_flexion_r	hip_adduction_r	hip_rotation_r	knee_angle_r	ankle_angle_r	subtalar_angle_r	mtp_angle_r	hip_flexion_l	hip_adduction_l	hip_rotation_l	knee_angle_l	ankle_angle_l	subtalar_angle_l	mtp_angle_l	lumbar_extension	lumbar_bending	lumbar_rotation
      3.65000000	     -6.43430474	      3.19668767	     -3.21597512	     -1.85374730	     -0.02497425	     -0.24731530	    -11.74692449	     -2.19866923	     -4.09414757	    -12.04979567	      7.44355443	      2.08297738	     17.75581673	     28.79707289	      0.50348086	    -21.95640061	     -4.70092041	      0.54110087	     11.12801589	     20.07496287	     -0.92727549	     -4.27562969	      8.00598312
      3.65500000	     -6.37109800	      3.20547828	     -3.31322021	     -1.84612900	     -0.02585961	     -0.24799318	    -11.90938092	     -2.38316454	     -3.92215442	    -12.75688757	      7.04114636	      2.32759951	     17.97885419	     28.95129425	      0.53251300	    -20.84148284	     -5.83355253	      0.73192793	      9.56951637	     18.71446782	     -0.88174661	     -4.30675852	      8.07366959
      3.66000000	     -6.35645935	      3.33335647	     -3.52487611	     -1.83827488	     -0.02673031	     -0.24870358	    -11.94505270	     -2.75688897	     -3.86606390	    -13.56293317	      6.59039304	      2.83647764	     18.79660681	     29.12446348	      0.65674884	    -19.91208329	     -7.08581242	      1.41495416	      8.16479071	     14.50826252	     -0.73368208	     -4.43626800	      8.24764145
      3.66500000	     -6.31146288	      3.32471214	     -3.60667273	     -1.83043498	     -0.02762277	     -0.24950559	    -12.04746921	     -2.93615083	     -3.73881746	    -14.34671918	      6.04272539	      3.12655554	     19.02048917	     29.22744301	      0.72420061	    -18.88888584	     -8.15247118	      1.28781365	      6.60554103	     13.56616641	     -0.64335822	     -4.43773241	      8.28833979
      3.67000000	     -6.30002991	      3.36248005	     -3.66436430	     -1.82249557	     -0.02852570	     -0.25046715	    -12.05674938	     -3.19580503	     -3.85684454	    -15.22207254	      5.44042947	      3.62920211	     19.63718141	     29.32268293	      0.88129935	    -17.83946271	     -9.17577992	      1.17300953	      5.10858582	     11.84585645	     -0.50539255	     -4.47292030	      8.33956655
      3.67500000	     -6.28947777	      3.53992547	     -3.83188895	     -1.81438902	     -0.02931383	     -0.25136494	    -12.00963906	     -3.65087620	     -3.95341691	    -16.11903510	      4.57268142	      4.12039872	     21.29225340	     29.34462716	      1.13877403	    -17.12903080	    -10.12424799	      1.24560638	      4.00553156	      8.90169684	     -0.32550379	     -4.64755940	      8.47592259
      3.68000000	     -6.28530310	      3.63364874	     -3.87242521	     -1.80634405	     -0.03002993	     -0.25232645	    -11.93944871	     -3.96576183	     -4.05480400	    -17.10115992	      3.76235479	      4.49777506	     21.52732151	     29.32001947	      1.37711322	    -16.31623273	    -10.84410815	      0.56625434	      2.84542707	      8.73662163	     -0.16409492	     -4.75198979	      8.53111529
      3.68500000	     -6.30845938	      3.81763254	     -3.84643000	     -1.79831057	     -0.03069489	     -0.25349364	    -11.78161343	     -4.40522222	     -4.35742699	    -18.17437580	      2.90346671	      5.09334302	     22.11427123	     29.28893726	      1.75295269	    -15.57435569	    -11.43977537	     -0.31527672	      1.78932629	      8.81829496	      0.01681425	     -4.94090845	      8.44582368
      3.69000000	     -6.26367640	      4.09222372	     -3.85231410	     -1.79018307	     -0.03112356	     -0.25466120	    -11.68538949	     -4.98576960	     -4.79706286	    -19.11701051	      1.34090128	      5.50955112	     24.96899874	     29.09086391	      2.20766978	    -15.05076755	    -11.78774407	     -1.60578403	      0.88377877	     10.71260720	      0.15063284	     -5.22123229	      8.46257779
